HIERARCHY
ROOT Hips
{
	OFFSET -3.958830 18.904000 13.208200
	CHANNELS 6 Xposition Yposition Zposition Zrotation Yrotation Xrotation 
	JOINT LHipJoint
	{
		OFFSET 0.000000 0.000000 0.000000
		CHANNELS 3 Zrotation Yrotation Xrotation
		JOINT LeftUpLeg
		{
			OFFSET 1.800000 -1.400000 0.085000
			CHANNELS 3 Zrotation Yrotation Xrotation
			JOINT LeftLeg
			{
				OFFSET 2.215000 -6.000000 0.000000
				CHANNELS 3 Zrotation Yrotation Xrotation
				JOINT LeftFoot
				{
					OFFSET 2.500000 -6.900000 0.000000
					CHANNELS 3 Zrotation Yrotation Xrotation
					JOINT LeftToeBase
					{
						OFFSET 0.200000 -0.500000 1.950000
						CHANNELS 3 Zrotation Yrotation Xrotation
						End Site
						{
							OFFSET 0.000000 0.000000 0.000000
						}
					}
				}
			}
		}
	}
	JOINT RHipJoint
	{
		OFFSET 0.000000 0.000000 0.000000
		CHANNELS 3 Zrotation Yrotation Xrotation
		JOINT RightUpLeg
		{
			OFFSET -1.800000 -1.400000 0.085000
			CHANNELS 3 Zrotation Yrotation Xrotation
			JOINT RightLeg
			{
				OFFSET -2.215000 -6.000000 0.000000
				CHANNELS 3 Zrotation Yrotation Xrotation
				JOINT RightFoot
				{
					OFFSET -2.500000 -6.900000 0.000000
					CHANNELS 3 Zrotation Yrotation Xrotation
					JOINT RightToeBase
					{
						OFFSET -0.200000 -0.500000 1.950000
						CHANNELS 3 Zrotation Yrotation Xrotation
						End Site
						{
							OFFSET 0.000000 0.000000 0.000000
						}
					}
				}
			}
		}
	}
	JOINT LowerBack
	{
		OFFSET 0.000000 0.000000 0.000000
		CHANNELS 3 Zrotation Yrotation Xrotation
		JOINT Spine
		{
			OFFSET -0.087000 1.940000 -0.288900
			CHANNELS 3 Zrotation Yrotation Xrotation
			JOINT Spine1
			{
				OFFSET 0.000000 1.950000 0.060000
				CHANNELS 3 Zrotation Yrotation Xrotation
				JOINT Neck
				{
					OFFSET 0.000000 0.000000 0.000000
					CHANNELS 3 Zrotation Yrotation Xrotation
					JOINT Neck1
					{
						OFFSET 0.000000 1.600000 0.340000
						CHANNELS 3 Zrotation Yrotation Xrotation
						JOINT Head
						{
							OFFSET 0.000000 1.667000 -0.240000
							CHANNELS 3 Zrotation Yrotation Xrotation
							End Site
							{
								OFFSET 0.000000 0.000000 0.000000
							}
						}
					}
				}
				JOINT LeftShoulder
				{
					OFFSET 0.000000 0.000000 0.000000
					CHANNELS 3 Zrotation Yrotation Xrotation
					JOINT LeftArm
					{
						OFFSET 2.700000 1.550000 -0.730000
						CHANNELS 3 Zrotation Yrotation Xrotation
						JOINT LeftForeArm
						{
							OFFSET 5.450000 0.000000 0.000000
							CHANNELS 3 Zrotation Yrotation Xrotation
							JOINT LeftHand
							{
								OFFSET 3.450000 0.000000 0.000000
								CHANNELS 3 Zrotation Yrotation Xrotation
								JOINT LeftHandIndex1
								{
									OFFSET 0.750000 0.000000 0.000000
									CHANNELS 3 Zrotation Yrotation Xrotation
									End Site
									{
										OFFSET 0.000000 0.000000 0.000000
									}
								}
							}
						}
					}
				}
				JOINT RightShoulder
				{
					OFFSET 0.000000 0.000000 0.000000
					CHANNELS 3 Zrotation Yrotation Xrotation
					JOINT RightArm
					{
						OFFSET -2.700000 1.550000 -0.730000
						CHANNELS 3 Zrotation Yrotation Xrotation
						JOINT RightForeArm
						{
							OFFSET -5.450000 0.000000 0.000000
							CHANNELS 3 Zrotation Yrotation Xrotation
							JOINT RightHand
							{
								OFFSET -3.450000 0.000000 0.000000
								CHANNELS 3 Zrotation Yrotation Xrotation
								JOINT RightHandIndex1
								{
									OFFSET -0.750000 0.000000 0.000000
									CHANNELS 3 Zrotation Yrotation Xrotation
									End Site
									{
										OFFSET 0.000000 0.000000 0.000000
									}
								}
							}
						}
					}
				}
			}
		}
	}
}
MOTION
Frames: 9
Frame Time: 0.016667
5.624160 16.473130 -21.770290 145.363470 80.742998 151.864908 -15.221196 13.839044 3.765947 15.798158 -3.806765 12.110470 -6.088508 6.013367 1.632862 0.256185 6.515446 2.541448 -0.153570 -0.833970 0.125720 17.989199 -9.480723 4.337689 -4.246212 5.671106 -39.694613 15.962824 -13.380550 36.537717 -0.519445 -6.054838 2.075885 -0.488930 0.226850 0.477760 -2.855020 -4.094411 -9.110740 12.033727 -13.384619 8.420170 -2.819409 -7.653644 -19.656665 2.574067 3.085937 -17.426081 2.522301 -13.683392 35.264996 -6.925760 -12.398160 -0.837300 4.435699 -4.374767 5.926701 -1.043509 8.398684 -1.113381 2.656413 6.102576 -1.365389 -4.629982 2.238147 0.587210 0.103050 -0.084790 -0.091170 -13.232400 5.359089 13.146816 10.168191 -12.071300 -3.256412 2.800183 5.288013 0.087786 2.509326 -0.866108 -0.190150 -0.124040 0.359480 -0.239580 
5.885890 16.683470 -21.632510 135.136513 83.220447 141.910486 -15.211650 13.657923 3.946790 13.258579 -2.925137 11.724644 -6.950086 5.360787 -2.134540 0.400274 6.157950 2.761327 0.055410 -0.465190 0.177790 18.048287 -9.706436 3.952714 -1.042494 5.681463 -35.063414 13.959163 -10.929386 32.620682 -0.384435 -5.100955 2.512878 -0.295110 0.230270 0.387470 -2.774090 -3.809694 -8.914428 12.282904 -11.146083 6.402352 -2.818002 -6.850010 -16.520777 3.500340 2.921106 -16.369168 2.854779 -13.909281 31.111512 -8.630150 -10.838440 -0.054370 3.345516 -3.585442 4.841722 1.779733 5.179807 -0.543683 2.052136 4.603788 -1.205531 -4.493444 2.407223 0.394960 0.144320 -0.099900 0.078790 -13.203193 4.692184 12.983663 8.508214 -12.832839 -2.584275 0.625737 3.594665 -0.344475 2.577764 -1.068101 -0.113840 -0.076850 0.126110 -0.150020 
6.112370 16.965580 -21.483840 123.393663 84.521506 130.266725 -15.084829 13.840908 4.008865 10.496767 -1.952914 9.508791 -6.949375 5.169138 -1.771113 0.224962 5.893425 2.754149 -0.113940 -0.757740 0.106490 18.091635 -10.150842 3.754544 1.869481 5.057631 -29.672814 10.488777 -7.843026 25.759861 -0.104007 -3.664991 2.961438 -0.459870 0.236760 0.503560 -2.889830 -3.783866 -8.814299 13.001080 -10.377027 4.740314 -4.133222 -5.870959 -16.614748 3.135196 3.365687 -17.696860 2.890162 -13.914150 35.291470 -8.156960 -12.338200 1.511050 4.251697 -5.486861 5.819630 2.785164 4.955720 -0.328999 0.831569 2.933753 -1.426722 -4.543775 2.376468 0.490960 0.138350 -0.100460 -0.051010 -13.510783 6.232334 13.696143 8.011353 -13.147029 -2.925772 1.871647 1.749733 -0.262779 2.620809 -0.874406 -0.126720 -0.167960 0.321830 -0.193590 
6.360160 17.274150 -21.245780 68.531152 83.199808 76.742646 -15.247774 13.529053 4.151154 5.761441 -0.493330 7.418854 -8.818365 4.721597 -3.944058 0.187422 5.495123 2.898801 -0.187940 -0.780380 0.008940 17.922315 -10.598513 3.639171 3.793427 4.307621 -24.999432 6.308222 -4.559039 16.292814 0.134054 -2.429895 3.503259 -0.470310 0.320900 0.461710 -3.092916 -2.885977 -8.832991 9.426650 -7.984169 1.749234 -2.689127 -4.628225 -17.096470 2.722997 3.652138 -18.138658 3.296563 -13.032843 38.672679 -8.078140 -12.292980 4.080770 4.593113 -6.187971 5.883271 3.087523 2.804999 -0.271899 1.903328 6.257305 -1.327061 -4.706860 2.226201 0.434100 0.198040 -0.146820 -0.045470 -12.770015 6.787559 13.676059 7.289233 -10.952489 -2.405725 -0.001292 -0.528865 -0.133148 2.694662 -0.828579 -0.147790 -0.104810 0.357620 -0.150750 
6.571060 17.538480 -21.066410 56.044072 80.867517 64.259275 -15.247365 13.551959 4.011371 2.129153 0.360189 4.958546 -8.783618 4.826205 -1.688967 0.089391 5.101362 3.036778 -0.183300 -0.792870 0.032160 17.937977 -10.670575 3.630930 3.181625 2.954526 -19.799795 6.169188 -3.253606 6.034474 0.132446 -2.174784 3.641604 -0.473930 0.317160 0.431050 -2.934394 -1.977678 -8.702849 5.659399 -6.547912 -0.381325 -1.350419 -4.275090 -15.798991 2.481962 4.664592 -18.370113 4.997848 -13.760300 41.194407 -8.520380 -12.816010 6.433830 3.777926 -7.750352 6.115923 4.597327 0.600630 -0.107034 1.764179 8.962970 -1.316578 -4.744295 2.197569 0.430960 0.190440 -0.156670 -0.032830 -11.194077 6.881809 13.800079 7.673910 -13.787777 -2.478950 -2.894439 5.076799 0.216225 2.585083 -0.980901 -0.162260 -0.087960 0.335900 -0.157900 
6.775390 17.725910 -20.931820 48.831223 78.842362 56.848020 -15.241175 13.297616 3.942688 -0.655174 0.832586 3.505224 -9.407115 4.599752 -2.544905 0.121888 4.863922 3.087323 -0.168970 -0.761520 0.020740 18.045948 -10.506678 3.639147 2.252832 2.158017 -16.092674 5.927307 -2.613243 -0.895600 0.050429 -2.465487 3.533464 -0.474140 0.287670 0.460680 -2.926583 -1.595240 -8.627458 4.516687 -5.635891 -1.594615 -1.337891 -4.293252 -12.568381 2.274954 4.322222 -18.692325 4.617062 -13.880821 39.039343 -8.862500 -12.588970 7.378400 4.631606 -8.414825 6.665948 4.086308 0.757273 -0.191112 2.354572 9.526406 -1.161159 -4.764472 2.320770 0.358350 0.193100 -0.162800 -0.031550 -11.597486 7.600234 14.302328 7.649844 -14.141509 -2.347559 -1.558016 4.439844 0.071478 2.622364 -1.039423 -0.099160 -0.173790 0.315230 -0.131570 
6.969380 17.956220 -20.790290 38.560766 77.153472 46.740652 -15.260597 13.146166 3.914464 -2.388580 0.796196 1.613425 -9.645132 4.382368 -2.816107 0.019734 4.673807 3.146915 -0.149320 -0.753900 0.036410 18.062410 -10.451723 3.726879 2.388346 1.885691 -14.338241 6.193404 -2.437323 -3.801228 -0.014090 -2.680076 3.446765 -0.443370 0.291470 0.453100 -2.929058 -1.539119 -8.682424 4.912121 -4.657108 -1.456460 -1.411376 -3.324611 -12.554334 2.661522 4.304131 -18.544545 4.714468 -14.303850 38.302295 -8.746250 -13.119410 6.569570 5.989897 -7.583019 5.638873 1.577664 -2.725028 -0.056576 4.393535 11.230646 -0.791395 -4.810713 2.358608 0.371700 0.187500 -0.176000 -0.028850 -13.509060 7.417254 14.690753 10.346766 -13.705520 -2.741811 -3.276537 5.176230 0.128874 2.600100 -1.079654 -0.125450 -0.155630 0.320420 -0.146270 
7.109880 18.093020 -20.640300 35.824776 75.639789 43.175756 -15.297300 12.919643 3.920038 -4.636808 0.612961 0.356580 -8.059340 3.676445 -5.089260 -0.091281 4.547140 3.261734 -0.250050 -0.873840 -0.028850 18.107956 -10.368909 3.659014 2.285797 1.525259 -12.467232 6.184246 -2.519435 -4.830343 0.003954 -2.957812 3.405109 -0.454480 0.450220 0.439180 -2.857626 -1.341588 -8.575793 3.419783 -4.384167 -0.492262 -0.354807 -3.718486 -8.866934 2.577494 4.143219 -18.939849 5.270908 -13.880350 34.409431 -9.819740 -11.579130 8.165330 7.005320 -8.138577 6.211172 -0.867822 -1.407231 -0.167790 7.820386 10.920781 -0.312684 -4.973136 2.313611 0.328540 0.309890 -0.283760 -0.023410 -14.510847 8.074414 15.329538 13.064563 -12.495307 -2.723869 -5.439179 2.945296 0.174428 2.604886 -1.077204 -0.227780 -0.068770 0.388030 -0.152220 
7.326660 18.286370 -20.484060 24.668003 73.975521 32.059044 -15.408267 12.897936 3.992839 -3.712513 -0.000426 -1.533541 -8.454925 3.287459 -6.762646 -0.090808 4.382721 3.289660 -0.182340 -0.741640 -0.045790 17.975891 -10.482132 3.614452 3.230356 1.187866 -10.887049 6.690833 -2.939879 -2.321123 -0.037785 -3.052404 3.372649 -0.397010 0.424290 0.454290 -3.181342 -1.741155 -8.715945 7.545792 -3.801964 0.184972 -1.860473 -2.467439 -10.363251 3.060350 3.403941 -18.399372 3.828549 -13.158339 35.328425 -9.133970 -11.801360 6.322540 6.644879 -6.842576 5.128135 -1.650275 -2.783189 -0.039422 9.605304 10.770975 -0.053095 -4.936868 2.418699 0.298000 0.297680 -0.250490 0.001780 -14.976678 8.418197 15.082655 12.649227 -9.066423 -2.167360 -6.161139 -3.176627 0.412216 2.781265 -1.034387 -0.165110 -0.082640 0.357560 -0.113350 
